<svg width="730" height="273" fill="none" xmlns="http://www.w3.org/2000/svg"><mask id="mask0_39_1139" style="mask-type:alpha" maskUnits="userSpaceOnUse" x="0" y="0" width="730" height="273"><rect width="730" height="273" rx="15" fill="#04031A"/></mask><g mask="url(#mask0_39_1139)" fill-rule="evenodd" clip-rule="evenodd" fill="#393B48"><path d="M707 315c-92.231 0-167-76.112-167-170S614.769-25 707-25s167 76.112 167 170-74.769 170-167 170zm69.471-196.447c3.273-22.272-13.386-34.246-36.165-42.233l7.389-30.17-18.041-4.578-7.194 29.376c-4.743-1.203-9.614-2.338-14.455-3.463l7.246-29.57-18.031-4.576-7.395 30.16c-3.925-.91-7.779-1.81-11.52-2.756l.02-.094-24.88-6.324-4.799 19.615s13.386 3.123 13.103 3.316c7.307 1.857 8.627 6.78 8.407 10.681l-8.417 34.372c.504.131 1.156.319 1.875.612-.601-.152-1.243-.319-1.906-.481l-11.798 48.149c-.894 2.26-3.16 5.649-8.268 4.362.18.267-13.113-3.332-13.113-3.332l-8.956 21.023 23.477 5.958c4.368 1.114 8.648 2.28 12.862 3.379l-7.466 30.516 18.02 4.577 7.394-30.192a675.957 675.957 0 0014.378 3.797l-7.369 30.051 18.041 4.577 7.467-30.458c30.764 5.926 53.897 3.536 63.634-24.789 7.846-22.806-.39-35.962-16.577-44.54 11.788-2.767 20.667-10.661 23.037-26.965z"/><path d="M740.83 118.224c-5.087 20.745-36.483 10.205-46.667 7.621l8.981-36.668c10.185 2.584 42.983 7.407 37.686 29.047zm-5.581 59.17c-5.575 22.806-43.296 10.477-55.526 7.386l9.908-40.429c12.229 3.108 51.445 9.259 45.618 33.043z"/></g></svg>