<svg width="188" height="188" viewBox="0 0 188 188" fill="none" xmlns="http://www.w3.org/2000/svg">
<g opacity="0.9">
<path d="M183.4 116.366C171.291 165.279 122.098 195.047 73.524 182.85C24.9693 170.655 -4.58906 121.111 7.52553 72.2006C19.6288 23.2816 68.8209 -6.48921 117.381 5.70559C165.953 17.9004 195.508 67.4499 183.4 116.366Z" fill="#393B48"/>
<path d="M135.42 81.271C137.224 69.1219 128.039 62.5908 115.48 58.2339L119.554 41.7763L109.607 39.2797L105.64 55.3036C103.025 54.6473 100.34 54.0282 97.6708 53.4147L101.666 37.2853L91.724 34.7887L87.6471 51.2406C85.4825 50.7441 83.3576 50.2533 81.2951 49.7369L81.3064 49.6855L67.5883 46.2359L64.9421 56.9356C64.9421 56.9356 72.3225 58.639 72.1667 58.7446C76.1954 59.7575 76.9235 62.4424 76.8017 64.5709L72.161 83.3196C72.4386 83.391 72.7985 83.4937 73.1951 83.6535C72.8636 83.5707 72.5095 83.4794 72.144 83.391L65.6391 109.655C65.1461 110.888 63.8967 112.737 61.0805 112.035C61.1797 112.18 53.8503 110.217 53.8503 110.217L48.9121 121.684L61.8568 124.934C64.265 125.542 66.625 126.178 68.9482 126.778L64.8316 143.423L74.7675 145.92L78.8444 129.451C81.5586 130.193 84.1934 130.878 86.7716 131.522L82.7088 147.914L92.656 150.411L96.7726 133.797C113.735 137.029 126.49 135.725 131.858 120.275C136.185 107.835 131.643 100.659 122.719 95.9795C129.218 94.4702 134.114 90.1646 135.42 81.271V81.271ZM112.692 113.367C109.618 125.807 88.82 119.082 82.0771 117.396L87.5394 95.3433C94.2823 97.0381 115.905 100.394 112.692 113.367V113.367ZM115.769 81.0913C112.964 92.4073 95.6535 86.658 90.0382 85.2484L94.9906 65.2472C100.606 66.6567 118.69 69.2874 115.769 81.0913V81.0913Z" fill="white"/>
</g>
</svg>
