<svg width="1199" height="193" fill="none" xmlns="http://www.w3.org/2000/svg"><mask id="mask0_40_100" style="mask-type:alpha" maskUnits="userSpaceOnUse" x="0" y="0" width="1199" height="193"><rect width="1199" height="193" rx="15" fill="#04031A"/></mask><g mask="url(#mask0_40_100)"><path d="M1044.82-22.512L1221.65-.41c2.93.367 5.59 1.93 7.39 4.348 1.81 2.417 2.61 5.49 2.22 8.542l-25.89 207.146c-.38 3.052-1.91 5.833-4.25 7.732-2.34 1.9-5.31 2.761-8.24 2.394l-176.83-22.102c-2.93-.366-5.59-1.93-7.39-4.347-1.8-2.417-2.6-5.49-2.22-8.542l25.89-207.146c.38-3.052 1.91-5.834 4.25-7.733 2.35-1.899 5.31-2.76 8.24-2.394zm18.77 119.225l-2.88 23.017 22.11 2.762 2.88-23.016-22.11-2.763zm-5.75 46.033l-2.88 23.016 22.1 2.763 2.88-23.016-22.1-2.763zm49.96-40.507l-2.88 23.016 22.11 2.763 2.87-23.016-22.1-2.763zm-5.75 46.032l-2.88 23.017 22.1 2.762 2.88-23.016-22.1-2.763zm49.96-40.507l-8.63 69.049 22.1 2.763 8.63-69.049-22.1-2.763zm-79.79-80.1l-5.75 46.033 110.52 13.814 5.75-46.032-110.52-13.814z" fill="#393B48"/></g></svg>