<svg width="118" height="24" fill="none" xmlns="http://www.w3.org/2000/svg"><path d="M23.495 14.857c-1.557 6.288-7.882 10.115-14.128 8.547C3.124 21.836-.676 15.467.881 9.18 2.437 2.892 8.763-.935 15.006.633 21.252 2.2 25.052 8.57 23.495 14.857z" fill="#04031A"/><path d="M17.326 10.346c.232-1.562-.95-2.401-2.564-2.961l.524-2.116-1.28-.32-.51 2.06a53.255 53.255 0 00-1.024-.244l.514-2.073-1.279-.321-.524 2.115a42.545 42.545 0 01-.816-.193v-.007l-1.763-.443-.34 1.375s.949.219.929.232c.518.13.611.476.596.75l-.597 2.41c.036.009.082.022.133.042l-.135-.033-.837 3.376c-.063.158-.224.396-.586.306.013.018-.93-.234-.93-.234l-.634 1.474 1.664.418c.31.078.613.16.912.237l-.53 2.14 1.278.32.524-2.116c.35.095.688.183 1.02.266l-.523 2.107 1.28.32.529-2.135c2.18.416 3.82.248 4.51-1.738.557-1.6-.027-2.522-1.174-3.123.835-.194 1.465-.748 1.633-1.89zm-2.923 4.126c-.395 1.6-3.069.735-3.936.518l.702-2.835c.867.218 3.648.65 3.234 2.317zm.396-4.149c-.36 1.455-2.586.716-3.308.534l.636-2.57c.722.18 3.048.519 2.672 2.036z" fill="#fff"/><path d="M39.734 7.384c.945 0 1.762.17 2.448.506.69.338 1.26.793 1.715 1.366.45.576.786 1.249 1.002 2.02.215.774.323 1.605.323 2.495 0 1.368-.249 2.66-.751 3.877a10.063 10.063 0 01-2.051 3.18 9.645 9.645 0 01-3.069 2.136c-1.178.526-2.458.788-3.833.788-.178 0-.49-.005-.932-.014a13.56 13.56 0 01-1.517-.133 17.616 17.616 0 01-1.815-.358 9.052 9.052 0 01-1.815-.653L34.543 1l4.572-.714-1.828 7.663a7.078 7.078 0 011.179-.415c.394-.099.816-.15 1.268-.15zM35.9 20.101c.689 0 1.338-.171 1.947-.506a5.134 5.134 0 001.58-1.351 6.833 6.833 0 001.047-1.917 6.57 6.57 0 00.384-2.23c0-.95-.157-1.691-.472-2.227-.314-.534-.896-.802-1.74-.802-.278 0-.634.053-1.077.148-.443.1-.84.31-1.196.625l-1.946 8.138c.117.021.22.04.31.06.086.02.182.034.277.044.101.011.217.017.356.017h.53zm14.064 3.236h-4.366l3.687-15.624h4.397l-3.718 15.624zM52.09 5.81c-.61 0-1.162-.183-1.652-.549-.494-.364-.74-.924-.74-1.679 0-.415.084-.804.25-1.172.17-.367.39-.682.666-.95.276-.267.595-.48.958-.64a2.908 2.908 0 011.167-.237c.61 0 1.159.183 1.65.549.491.368.738.928.738 1.679a2.8 2.8 0 01-.251 1.174 3.093 3.093 0 01-1.621 1.589 2.86 2.86 0 01-1.165.236zm5.418-1.988l4.573-.714-1.123 4.605h4.899l-.885 3.623h-4.868l-1.297 5.465c-.12.456-.188.881-.207 1.277-.021.397.029.738.147 1.025.117.288.328.51.634.667.305.16.74.24 1.313.24.47 0 .93-.045 1.373-.135a9.7 9.7 0 001.34-.37l.327 3.387c-.59.218-1.23.405-1.918.563-.69.16-1.506.237-2.45.237-1.356 0-2.408-.203-3.157-.607-.748-.406-1.277-.962-1.594-1.666-.312-.7-.452-1.508-.413-2.419.04-.912.177-1.871.413-2.881l2.893-12.297zM65.664 17.1c0-1.346.216-2.615.649-3.803a9.367 9.367 0 011.86-3.121 8.71 8.71 0 012.937-2.108c1.147-.513 2.432-.772 3.848-.772.886 0 1.678.084 2.374.253.7.17 1.333.391 1.905.668l-1.506 3.447a14.22 14.22 0 00-1.224-.43c-.423-.131-.939-.194-1.549-.194-1.457 0-2.61.506-3.467 1.514-.854 1.009-1.284 2.367-1.284 4.07 0 1.01.216 1.827.65 2.451.432.625 1.23.936 2.39.936a7.56 7.56 0 001.651-.178 8.096 8.096 0 001.418-.445l.326 3.534a15.73 15.73 0 01-1.83.581c-.67.165-1.466.25-2.39.25-1.22 0-2.253-.18-3.098-.533-.845-.36-1.544-.837-2.094-1.441a5.442 5.442 0 01-1.195-2.126 8.775 8.775 0 01-.371-2.553zm19.397 6.653c-1.042 0-1.947-.16-2.715-.477-.766-.316-1.4-.76-1.902-1.336a5.786 5.786 0 01-1.136-2.035c-.257-.782-.38-1.648-.38-2.596 0-1.19.189-2.38.573-3.567a10.122 10.122 0 011.697-3.207A9.083 9.083 0 0183.94 8.2c1.08-.602 2.321-.905 3.716-.905 1.023 0 1.923.16 2.702.477a5.05 5.05 0 011.918 1.336 5.813 5.813 0 011.133 2.036c.257.78.383 1.648.383 2.598 0 1.186-.187 2.376-.558 3.566a10.326 10.326 0 01-1.653 3.207 8.675 8.675 0 01-2.728 2.33c-1.09.605-2.356.908-3.792.908zm2.183-12.714c-.648 0-1.22.19-1.71.563a4.846 4.846 0 00-1.238 1.427 7.073 7.073 0 00-.755 1.886 8.184 8.184 0 00-.249 1.945c0 .992.16 1.764.471 2.32.317.552.886.83 1.712.83a2.73 2.73 0 001.712-.565 4.872 4.872 0 001.238-1.425 7.086 7.086 0 00.755-1.887 8.29 8.29 0 00.249-1.945c0-.989-.158-1.763-.474-2.318-.314-.553-.885-.83-1.711-.83zm11.308 12.298h-4.37L97.87 7.713h4.398l-3.716 15.624zm2.122-17.527a2.693 2.693 0 01-1.651-.549c-.492-.364-.739-.924-.739-1.679 0-.415.085-.804.251-1.172.167-.367.389-.682.665-.95a3.24 3.24 0 01.959-.64 2.888 2.888 0 011.163-.237c.611 0 1.162.183 1.653.549.492.368.74.928.74 1.679 0 .416-.088.807-.253 1.174a3.083 3.083 0 01-1.62 1.589c-.366.16-.754.236-1.168.236zm4.74 2.615c.331-.097.701-.215 1.104-.342a16.198 16.198 0 013.04-.623 18.76 18.76 0 012.107-.105c2.303 0 3.891.675 4.767 2.021.876 1.347 1.028 3.19.459 5.525l-2.008 8.436h-4.396l1.947-8.258a17.72 17.72 0 00.281-1.502c.069-.482.065-.908-.016-1.276a1.526 1.526 0 00-.544-.892c-.288-.227-.724-.341-1.314-.341-.569 0-1.149.061-1.74.18l-2.862 12.089h-4.397l3.572-14.912z" fill="#04031A"/></svg>