<svg width="135" height="37" viewBox="0 0 135 37" fill="none" xmlns="http://www.w3.org/2000/svg">
<g opacity="0.6">
<path opacity="0.6" d="M11.2557 13.6802L0 18.846L11.2557 25.5567L22.5069 18.846L11.2557 13.6802Z" fill="#04031A"/>
</g>
<g opacity="0.45">
<path opacity="0.45" d="M0 18.846L11.2557 25.5567V0L0 18.846Z" fill="#04031A"/>
</g>
<g opacity="0.8">
<path opacity="0.8" d="M11.2556 0V25.5567L22.5069 18.846L11.2556 0Z" fill="#04031A"/>
</g>
<g opacity="0.45">
<path opacity="0.45" d="M0 20.9981L11.2557 37V27.7087L0 20.9981Z" fill="#04031A"/>
</g>
<g opacity="0.8">
<path opacity="0.8" d="M11.2556 27.7087V37L22.5157 20.9981L11.2556 27.7087Z" fill="#04031A"/>
</g>
<path d="M39.6933 19.2887C39.6933 19.5218 39.4998 19.7115 39.2688 19.7115H31.092C31.2962 21.75 32.8166 23.6096 34.9548 23.6096C36.4161 23.6096 37.5013 23.0458 38.3179 21.8693C38.4361 21.7067 38.6134 21.6037 38.839 21.7012C38.9626 21.7555 39.0486 21.8693 39.0701 21.9994C39.0915 22.135 39.0539 22.2109 39.0163 22.2868C38.1944 23.7343 36.5558 24.4445 34.9494 24.4445C32.1987 24.4445 30.2378 21.9615 30.2378 19.3049C30.2378 16.6484 32.1987 14.1654 34.9494 14.1654C37.7001 14.1599 39.6879 16.6376 39.6933 19.2887V19.2887ZM38.8176 18.8875C38.6403 16.849 37.093 14.9894 34.9548 14.9894C32.8166 14.9894 31.2962 16.849 31.092 18.8875H38.8176ZM49.6161 14.3659C49.8525 14.3659 50.0244 14.572 50.0244 14.778C50.0244 15.0165 49.8471 15.19 49.6161 15.19H47.4242V23.8698C47.4242 24.0759 47.2469 24.2819 47.0159 24.2819C46.7795 24.2819 46.6076 24.0759 46.6076 23.8698V15.19H44.5016C44.2652 15.19 44.0933 15.0111 44.0933 14.778C44.0933 14.572 44.2706 14.3659 44.5016 14.3659H46.6076V11.1889C46.6076 10.9883 46.7419 10.804 46.9353 10.7715C47.2093 10.7281 47.4242 10.9179 47.4242 11.1781V14.3659H49.6161ZM62.9881 18.5622V23.8211C62.9881 24.0596 62.7839 24.2331 62.5798 24.2331C62.3434 24.2331 62.1715 24.0542 62.1715 23.8211V18.5622C62.1715 16.7894 61.1776 15.0165 59.2166 15.0165C56.7023 15.0165 55.6171 17.2339 55.7622 19.5055C55.7622 19.5652 55.789 19.8308 55.789 19.8579V23.8048C55.789 24.0054 55.6547 24.1897 55.4613 24.2222C55.1873 24.2656 54.9724 24.0759 54.9724 23.8156V6.54271C54.9724 6.33669 55.1497 6.13068 55.3807 6.13068C55.6171 6.13068 55.789 6.33669 55.789 6.54271V16.3177C56.4928 15.0491 57.75 14.1925 59.2113 14.1925C61.6127 14.1925 62.9881 16.3177 62.9881 18.5622V18.5622ZM77.6494 19.2887C77.6494 19.5218 77.456 19.7115 77.225 19.7115H69.0428C69.2469 21.75 70.7673 23.6096 72.9056 23.6096C74.3669 23.6096 75.4521 23.0458 76.2687 21.8693C76.3869 21.7067 76.5642 21.6037 76.7898 21.7012C76.9134 21.7555 76.9994 21.8693 77.0208 21.9994C77.0423 22.135 77.0047 22.2109 76.9671 22.2868C76.1451 23.7343 74.5065 24.4445 72.9002 24.4445C70.1495 24.4445 68.1886 21.9615 68.1886 19.3049C68.1886 16.6484 70.1495 14.1654 72.9002 14.1654C75.6562 14.1599 77.644 16.6376 77.6494 19.2887V19.2887ZM76.7683 18.8875C76.591 16.849 75.0438 14.9894 72.9056 14.9894C70.7673 14.9894 69.2469 16.849 69.0428 18.8875H76.7683ZM87.6851 14.7509C87.6851 15.0165 87.54 15.1629 87.3037 15.1954C84.9022 15.5478 83.8223 17.5267 83.8223 19.8308V23.7777C83.8223 23.9783 83.688 24.1626 83.4946 24.1951C83.2206 24.2385 83.0057 24.0488 83.0057 23.7885V14.7942C83.0057 14.5936 83.14 14.4093 83.3334 14.3768C83.6074 14.3334 83.8223 14.5232 83.8223 14.7834V16.6159C84.4939 15.4665 85.8424 14.3714 87.2446 14.3714C87.4487 14.3659 87.6851 14.5177 87.6851 14.7509V14.7509ZM101.116 19.2887C101.116 19.5218 100.923 19.7115 100.692 19.7115H92.5149C92.7191 21.75 94.2395 23.6096 96.3777 23.6096C97.839 23.6096 98.9242 23.0458 99.7408 21.8693C99.859 21.7067 100.036 21.6037 100.262 21.7012C100.386 21.7555 100.471 21.8693 100.493 21.9994C100.514 22.135 100.477 22.2109 100.439 22.2868C99.6172 23.7343 97.9787 24.4445 96.3723 24.4445C93.6216 24.4445 91.6607 21.9615 91.6607 19.3049C91.6607 16.6484 93.6216 14.1654 96.3723 14.1654C99.123 14.1599 101.111 16.6376 101.116 19.2887V19.2887ZM100.24 18.8875C100.063 16.849 98.5159 14.9894 96.3777 14.9894C94.2395 14.9894 92.7191 16.849 92.5149 18.8875H100.24V18.8875ZM114.316 14.8539V23.8698C114.316 24.1084 114.112 24.2819 113.908 24.2819C113.672 24.2819 113.5 24.103 113.5 23.8698V22.1567C112.828 23.5175 111.625 24.4879 110.104 24.4879C107.676 24.4879 106.327 22.3627 106.327 20.1182V14.8322C106.327 14.6262 106.505 14.4202 106.736 14.4202C106.972 14.4202 107.144 14.6262 107.144 14.8322V20.1182C107.144 21.891 108.138 23.6638 110.099 23.6638C112.85 23.6638 113.494 21.0669 113.494 18.199V14.8322C113.494 14.5936 113.731 14.3497 114.021 14.4364C114.198 14.4961 114.316 14.6695 114.316 14.8539V14.8539ZM135 18.5297V23.8156C135 24.0542 134.796 24.2277 134.592 24.2277C134.355 24.2277 134.183 24.0488 134.183 23.8156V18.5297C134.183 16.7568 133.19 15.0165 131.229 15.0165C128.768 15.0165 127.833 17.6731 127.833 19.7387V23.8156C127.833 24.0542 127.629 24.2277 127.425 24.2277C127.189 24.2277 127.017 24.0488 127.017 23.8156V18.5297C127.017 16.7568 126.023 15.0165 124.062 15.0165C121.574 15.0165 120.548 16.9954 120.64 19.6248C120.64 19.6844 120.666 19.8037 120.64 19.8308V23.8048C120.64 24.0054 120.505 24.1897 120.306 24.2222C120.032 24.2656 119.818 24.0759 119.818 23.8156V14.7942C119.818 14.5936 119.952 14.4093 120.145 14.3768C120.419 14.3334 120.634 14.5232 120.634 14.7834V16.2906C121.338 15.0219 122.595 14.1925 124.056 14.1925C125.722 14.1925 127.011 15.2551 127.538 16.8219C128.209 15.2876 129.526 14.1925 131.223 14.1925C133.625 14.1925 135 16.2852 135 18.5297" fill="#04031A"/>
</svg>
