<svg width="369" height="369" fill="none" xmlns="http://www.w3.org/2000/svg"><path fill-rule="evenodd" clip-rule="evenodd" d="M0 39.136v39.137h78.273V0H0v39.136zM100.636 5.591v5.59h11.182v33.546h-11.182V22.364H89.454v67.09h11.182v11.182h11.182V78.273H123V67.09h11.182v11.183h11.182V67.09h11.181v11.183h11.182v11.181h-33.545v11.182h22.363v11.182h11.182V123h-11.182v11.182h22.364V123h11.182v-22.364h11.182V89.454h-22.364V78.273h11.182V55.909h-11.182V44.727h11.182V33.545h22.364v11.182h-11.182V55.91h11.182V44.727h22.363V55.91h-11.182v22.364h11.182v11.18h-11.182v11.182h-11.181v11.182h-11.182V123h11.182v-11.182h11.181v22.364h33.546v-22.364h11.182v-11.182h11.181V123h-11.181v22.364h-44.728v11.181h-11.181v22.364h-22.364v-11.182h11.182v-11.182h-11.182v-11.181h-44.727v-11.182H123v11.182h-11.182v-11.182h-11.182V123H123v-11.182h-22.364V123H89.454v11.182h11.182v11.182H78.273v-11.182H67.09v11.182H55.91v-11.182H33.545v-22.364h11.182V123h33.546v-11.182H44.727v-11.182h33.546V89.454H22.364v11.182H11.182V89.454H0v11.182h11.182v44.728H0v11.181h11.182v11.182h33.545v-11.182H33.545v-11.181H55.91v11.181h11.18v11.182h11.183v11.182H33.546v11.182h11.182v11.182H33.545v11.182h11.182v11.181H55.91v11.182H33.546v-11.182H22.363v-11.181H0v11.181h22.364V246H11.182v33.545h11.182v-11.181h11.181v-11.182H22.364V246h33.545v11.182H44.727v11.182H55.91v11.181h33.545v11.182h11.181v11.182H89.454v44.727h11.182v11.182H89.454V369h78.273v-33.545h22.364v11.181h-11.182V369h55.909v-11.182H246v-22.363h22.364v11.181h-11.182v11.182h11.182V369h22.363v-22.364h11.182v-11.181h22.364v-22.364h22.363v22.364h-11.181v11.181h-22.364V369h22.364v-11.182h11.181V369h11.182v-11.182h-11.182v-22.363H369v-11.182h-11.182v-11.182h-11.182v-11.182h11.182v-11.182H369v-11.182h-11.182v11.182h-11.182v-11.182h-11.181v-11.181h11.181v-11.182h11.182v11.182H369v-11.182h-11.182V246H369v-11.182h-11.182v-11.182h-11.182v-11.181h11.182v-11.182H369v-11.182h-11.182v11.182h-11.182v-11.182h-11.181v-11.182h11.181v-11.182h11.182v11.182H369v-11.182h-11.182v-11.182H369v-22.363h-22.364V123h11.182v-11.182H369v-11.182h-11.182v11.182h-44.727v-11.182h33.545V89.454h-55.909v11.182h-11.182V67.091h-11.181v11.182h-11.182V55.909h22.363V44.727h-22.363V33.545h22.363V22.364H246V11.182h-11.182V0h-22.363v11.182h22.363v22.363h-22.363V22.364h-11.182V0h-22.364v11.182h-11.182V0h-33.545v22.364H123V11.182h-11.182V0h-11.182v5.59zm156.546 0v5.59h11.182V0h-11.182v5.59zm33.545 33.545v39.137H369V0h-78.273v39.136zm-223.636 0v27.955H11.182V11.182H67.09v27.954zm123-16.772v11.181h-11.182v11.182h-11.182v22.364h11.182v11.182h-11.182V67.09h-11.182V55.91h-11.181V33.545h11.181V22.363h22.364V11.182h11.182v11.182zm167.727 16.772v27.955h-55.909V11.182h55.909v27.954zm-335.454 0V55.91h33.545V22.364H22.364v16.772zm290.727 0V55.91h33.545V22.364h-33.545v16.772zm-178.909 0v5.591H123V33.545h11.182v5.591zm22.363 0v5.591h11.182V33.545h-11.182v5.591zm89.455 0v5.591h11.182V55.91H246V44.727h-11.182V33.545H246v5.591zM123 61.5v5.59h-11.182v11.183h-11.182V67.092h11.182V55.91H123v5.59zm78.273 11.182v5.59h11.182v-11.18h-11.182v5.59zm44.727 0v5.59h11.182v11.183h11.182v11.181h-11.182V89.454H246v11.182h-11.182v11.182H246V123h-11.182v-11.182h-11.182v-11.182h11.182V89.454H246V78.273h-11.182V67.09H246v5.59zM33.546 106.227v5.591H22.364v-11.182h11.181v5.591zm145.363 0v5.591h-11.182v-11.182h11.182v5.591zm123 11.182V123h11.182v22.364h11.182v11.181h22.363v-11.181h-11.181v-11.182h11.181v11.182h11.182v11.181h-11.182v11.182h-11.181v11.182h-11.182v-22.364h-22.364v-11.181h-22.364v11.181h11.182v22.364h11.182v-11.182h11.182v11.182h-11.182v11.182h22.364v11.182h11.182v11.182h-44.728v-11.182h-11.182v11.182h-11.181v11.181h33.545v11.182h22.364v-11.182h22.363v11.182h11.182V246h-11.182v-11.182h-22.363V246h-11.182v11.182h11.182v11.182h-22.364v-11.182h-11.182v11.182h-22.363v11.181H246v11.182h11.182v11.182h11.182v22.364h11.181v11.182h11.182v-11.182h11.182v11.182h-11.182v11.181h-11.182v11.182h-11.181v-11.182h11.181v-11.181h-11.181v-11.182h-55.909v11.182h22.363v22.363h-22.363v-22.363h-22.364v-11.182h-11.182v-11.182h11.182v-11.182h-11.182v-11.182h-11.182v-11.182h-11.182v22.364h11.182v11.182h-11.182v-11.182h-11.181v11.182h-11.182v11.182h-22.364v-11.182H123v-11.182h-11.182v-22.364H89.455v-22.363H78.272v11.182H55.909v-11.182h22.364V246H55.909v-11.182h33.545v-11.182h11.182v-33.545H89.454v-11.182h11.182v-11.182H89.454v-11.182h11.182v-11.181h11.182v11.181H123v11.182h11.182v-22.363h11.182v33.545h11.181v-11.182h11.182v-11.182h22.364v11.182h-11.182v33.546h-22.364v11.182h11.182v11.181h-11.182v11.182H123v-11.182h11.182v-11.181h11.182v-11.182h11.181v-11.182h-11.181v-11.182h-11.182v22.364H123v-11.182h-11.182v67.091H123v11.182h11.182v-11.182h11.182V246h22.363v11.182h-11.182v11.182h11.182v11.181h33.546v-11.181h-22.364v-11.182h11.182V246h-11.182v-11.182h11.182v-11.182h33.545v-11.181h-22.363v-22.364h11.182v11.182h11.181v11.182h11.182v11.181H246v-22.363h-11.182v-22.364h22.364v-22.364h11.182v-11.181h11.181V123h11.182v-11.182h11.182v5.591zM33.546 139.773v5.591H22.364v11.181H11.182v-11.181h11.182v-11.182h11.181v5.591zm167.727 0v5.591h11.182v-11.182h-11.182v5.591zm-123 11.182v5.59H67.09v-11.181h11.183v5.591zm22.363 11.181v5.591h11.182v-11.182h-11.182v5.591zm145.364 0v5.591h-22.364v-11.182H246v5.591zm22.364 5.591v11.182h11.181v11.182h11.182v11.182h11.182v-11.182h-11.182v-11.182h-11.182v-22.364h-11.181v11.182zM156.545 184.5v5.591h11.182v-11.182h-11.182v5.591zM0 195.682v5.591h11.182v-11.182H0v5.591zm78.273 0v5.591H67.09v11.182h11.183v11.181H67.09v-11.181H55.91v-11.182h11.18v-11.182h11.183v5.591zm167.727 0v5.591h22.364v-11.182H246v5.591zm0 33.545v5.591h11.182V246h11.182v11.182h-11.182v11.182h11.182v-11.182h11.181V246h22.364v-11.182h-44.727v-11.182H246v5.591zm-44.727 22.364v16.773h11.182v22.363h-11.182v11.182h11.182v-11.182h11.181v22.364H246v-22.364h-11.182v-22.363H246V246h-11.182v11.182h-22.363v-22.364h-11.182v16.773zm-111.819 0v5.591h11.182v11.182h11.182v-11.182h-11.182V246H89.454v5.591zm55.91 22.364v5.59H123v22.364h11.182v-11.182h11.182v-11.182h11.181v-11.181h-11.181v5.591zm167.727 22.363v16.773h-33.546v-33.546h33.546v16.773zm22.364-11.182v5.591h11.181v11.182h-11.181v-11.182h-11.182v-11.182h11.182v5.591zM0 329.864V369h78.273v-78.273H0v39.137zm290.727-33.546v5.591h11.182v-11.182h-11.182v5.591zM67.091 329.864v27.954H11.182v-55.909H67.09v27.955zm-44.727 0v16.772h33.545v-33.545H22.364v16.773zm178.909-11.182v5.591h11.182v-11.182h-11.182v5.591zM123 341.045v5.591h11.182v11.182h-22.364v-11.182h-11.182v-11.181H123v5.59zm33.545 11.182v5.591h-11.181v-11.182h11.181v5.591zm44.728 0v5.591h-11.182v-11.182h11.182v5.591z" fill="#04031A"/></svg>