<svg width="416" height="50" fill="none" xmlns="http://www.w3.org/2000/svg"><mask id="mask0_59_58" style="mask-type:alpha" maskUnits="userSpaceOnUse" x="0" y="0" width="416" height="50"><rect width="416" height="50" rx="15" fill="#04031A"/></mask><g mask="url(#mask0_59_58)"><path d="M401.665 37.003l-5.826 21.429a3.133 3.133 0 01-1.508 1.914 3.296 3.296 0 01-2.464.293l-43.953-11.95a3.299 3.299 0 01-1.976-1.5 3.13 3.13 0 01-.331-2.414l5.826-21.428 50.232 13.656zm-8.113-38.367a11.612 11.612 0 014.942 2.77 11.272 11.272 0 012.993 4.743 10.869 10.869 0 01-2.166 10.496l10.477 2.845a3.296 3.296 0 011.976 1.5 3.13 3.13 0 01.331 2.415l-2.497 9.183a3.13 3.13 0 01-1.508 1.915 3.294 3.294 0 01-2.463.293l-56.511-15.364a3.298 3.298 0 01-1.977-1.5 3.139 3.139 0 01-.331-2.415l2.497-9.183a3.133 3.133 0 011.508-1.915 3.297 3.297 0 012.464-.293l10.476 2.851a10.846 10.846 0 011.296-7.537 11.107 11.107 0 015.981-4.868 11.605 11.605 0 017.828.111 11.508 11.508 0 015.964 5.037 11.34 11.34 0 014.237-1.409 11.57 11.57 0 014.483.325zM376.19.49a4.947 4.947 0 00-3.592.386 4.71 4.71 0 00-2.298 2.707 4.685 4.685 0 00.266 3.535 4.921 4.921 0 002.681 2.412l.447.144 4.709 1.28 1.248-4.592a4.686 4.686 0 00-.384-3.419 4.925 4.925 0 00-2.63-2.308L376.19.49zm15.698 4.268l-.458-.101a4.932 4.932 0 00-3.239.54 4.709 4.709 0 00-2.122 2.437l-.139.436-1.248 4.591 4.709 1.28.458.102a4.926 4.926 0 003.436-.66 4.692 4.692 0 002.061-2.753 4.688 4.688 0 00-.383-3.419 4.926 4.926 0 00-2.629-2.309l-.446-.144z" fill="#393B48"/></g></svg>